<svg width="16" height="12" viewBox="0 0 16 12" fill="none" xmlns="http://www.w3.org/2000/svg">
<path fill-rule="evenodd" clip-rule="evenodd" d="M8.00002 0.666626C9.81838 0.666626 11.5571 1.62038 13.1775 3.18739C13.7304 3.72199 14.2305 4.29273 14.6707 4.86371C14.9364 5.20825 15.125 5.47929 15.2283 5.64076L15.458 5.99996L15.2283 6.35916C15.125 6.52063 14.9364 6.79167 14.6707 7.13621C14.2305 7.70719 13.7304 8.27793 13.1775 8.81253C11.5571 10.3795 9.81838 11.3333 8.00002 11.3333C6.18165 11.3333 4.4429 10.3795 2.82249 8.81253C2.26968 8.27793 1.76955 7.70719 1.32929 7.13621C1.06362 6.79167 0.874998 6.52063 0.771725 6.35916L0.541992 5.99996L0.771725 5.64076C0.874998 5.47929 1.06362 5.20825 1.32929 4.86371C1.76955 4.29273 2.26968 3.72199 2.82249 3.18739C4.4429 1.62038 6.18165 0.666626 8.00002 0.666626ZM13.6149 5.67788C13.2118 5.15511 12.7535 4.63209 12.2507 4.14586C10.855 2.79621 9.4034 1.99996 8.00002 1.99996C6.59663 1.99996 5.14501 2.79621 3.74938 4.14586C3.24657 4.63209 2.78827 5.15511 2.38518 5.67788C2.29812 5.79078 2.21767 5.89851 2.14413 5.99996C2.21767 6.10141 2.29812 6.20914 2.38518 6.32204C2.78827 6.84481 3.24657 7.36782 3.74938 7.85406C5.14501 9.20371 6.59663 9.99996 8.00002 9.99996C9.4034 9.99996 10.855 9.20371 12.2507 7.85406C12.7535 7.36782 13.2118 6.84481 13.6149 6.32204C13.7019 6.20914 13.7824 6.10141 13.8559 5.99996C13.7824 5.89851 13.7019 5.79078 13.6149 5.67788ZM5.33335 5.99996C5.33335 7.47272 6.52726 8.66663 8.00002 8.66663C9.47277 8.66663 10.6667 7.47272 10.6667 5.99996C10.6667 4.5272 9.47277 3.33329 8.00002 3.33329C6.52726 3.33329 5.33335 4.5272 5.33335 5.99996ZM9.33335 5.99996C9.33335 6.73634 8.73639 7.33329 8.00002 7.33329C7.26364 7.33329 6.66668 6.73634 6.66668 5.99996C6.66668 5.26358 7.26364 4.66663 8.00002 4.66663C8.73639 4.66663 9.33335 5.26358 9.33335 5.99996Z" fill="#9564AA"/>
</svg>
