<svg width="14" height="14" viewBox="0 0 14 14" fill="none" xmlns="http://www.w3.org/2000/svg">
<path fill-rule="evenodd" clip-rule="evenodd" d="M2.66467 3.66671C2.44587 3.30896 2.33331 2.86861 2.33331 2.33337C2.33331 1.2781 3.12688 0.333374 4.33331 0.333374C5.54131 0.333374 6.51549 1.14246 6.99998 2.40926C7.48447 1.14246 8.45865 0.333374 9.66665 0.333374C10.8731 0.333374 11.6666 1.2781 11.6666 2.33337C11.6666 2.86861 11.5541 3.30896 11.3353 3.66671H12.3333C13.0697 3.66671 13.6666 4.26366 13.6666 5.00004V6.33337C13.6666 7.06975 13.0697 7.66671 12.3333 7.66671V12.3334C12.3333 13.0698 11.7364 13.6667 11 13.6667H2.99998C2.2636 13.6667 1.66665 13.0698 1.66665 12.3334V7.66671C0.930267 7.66671 0.333313 7.06975 0.333313 6.33337V5.00004C0.333313 4.26366 0.930267 3.66671 1.66665 3.66671H2.66467ZM6.33331 5.00004H1.66665V6.33337H6.33331V5.00004ZM12.3333 6.33337H7.66665V5.00004H12.3333V6.33337ZM6.33331 12.3334V7.66671H2.99998V12.3334H6.33331ZM11 12.3334H7.66665V7.66671H11V12.3334ZM4.33331 1.66671C3.91974 1.66671 3.66665 1.96802 3.66665 2.33337C3.66665 3.16886 4.34465 3.56612 5.95293 3.6497C5.77418 2.40777 5.1081 1.66671 4.33331 1.66671ZM7.99998 3.6497C8.17872 2.40777 8.84481 1.66671 9.61959 1.66671C10.0332 1.66671 10.2863 1.96802 10.2863 2.33337C10.2863 3.16886 9.60826 3.56612 7.99998 3.6497Z" fill="#9564AA"/>
</svg>
